<svg width="31" height="30" viewBox="0 0 31 30" fill="none" xmlns="http://www.w3.org/2000/svg">
<circle opacity="0.1" cx="15.5" cy="14.9995" r="15" fill="#E40A13"/>
<path d="M14.7188 11.9524L11.7109 14.6868L10.3438 13.4439" stroke="#E40A13" stroke-width="0.768" stroke-linecap="round" stroke-linejoin="round"/>
<path d="M7.73454 8.30664C7.1663 8.30664 6.69775 8.78152 6.69775 9.35744V19.0224C6.69775 19.6359 7.18624 20.131 7.7915 20.131H9.28402C9.45776 21.1789 10.3564 21.9785 11.4373 21.9785C12.5183 21.9785 13.4169 21.1789 13.5907 20.131H16.9631C17.2322 20.131 17.4729 20.0155 17.658 19.8423C17.8475 20.0112 18.0896 20.1281 18.3644 20.131H18.7632C18.9369 21.1789 19.8356 21.9785 20.9165 21.9785C22.1199 21.9785 23.104 20.9811 23.104 19.7615C23.104 18.5418 22.1199 17.5444 20.9165 17.5444C19.8356 17.5444 18.9369 18.344 18.7632 19.3919H18.3644C18.2961 19.3919 18.1921 19.3443 18.1138 19.2649C18.0354 19.1855 17.9998 19.0903 17.9998 19.0224V12.0017C17.9998 11.8632 18.2277 11.6322 18.3644 11.6322H21.2811C21.5673 11.6322 21.9704 11.9426 22.2495 12.2789C22.2524 12.2832 22.2581 12.2861 22.2609 12.2904L22.3179 12.3713H20.5519C19.9709 12.3713 19.4582 12.8476 19.4582 13.4798V14.9578C19.4582 15.2653 19.5949 15.5352 19.7886 15.7315C19.9823 15.9278 20.2486 16.0664 20.5519 16.0664H24.1978V19.0224C24.1978 19.161 23.9699 19.3919 23.8332 19.3919H23.104V20.131H23.8332C24.4384 20.131 24.9269 19.6359 24.9269 19.0224V15.4659C24.9269 14.6201 24.3459 13.8724 24.3459 13.8724H24.3345L22.8306 11.8401V11.8285L22.8192 11.817C22.4831 11.4056 21.9789 10.8932 21.2811 10.8932H18.3644C18.2348 10.8932 18.1152 10.9206 17.9998 10.9625V9.38053C17.9998 8.81327 17.5584 8.30664 16.9744 8.30664H7.73454ZM7.73454 9.04566H16.9744C17.1311 9.04566 17.2707 9.19866 17.2707 9.38053V19.0802C17.2707 19.2534 17.1354 19.3919 16.9631 19.3919H13.5907C13.4169 18.344 12.5183 17.5444 11.4373 17.5444C10.3564 17.5444 9.45776 18.344 9.28402 19.3919H7.7915C7.65479 19.3919 7.42692 19.1596 7.42692 19.0224V9.35744C7.42692 9.18423 7.56079 9.04566 7.73454 9.04566ZM20.5519 13.1103H22.8647L23.7534 14.3112C23.7534 14.3112 24.0838 14.8842 24.1522 15.3273H20.5519C20.4907 15.3273 20.3924 15.2811 20.3127 15.2003C20.2329 15.1195 20.1873 15.0199 20.1873 14.9578V13.4798C20.1873 13.2936 20.4038 13.1103 20.5519 13.1103ZM11.4373 18.2834C12.2477 18.2834 12.8957 18.9402 12.8957 19.7615C12.8957 20.5827 12.2477 21.2395 11.4373 21.2395C10.627 21.2395 9.979 20.5827 9.979 19.7615C9.979 18.9402 10.627 18.2834 11.4373 18.2834ZM20.9165 18.2834C21.7268 18.2834 22.3748 18.9402 22.3748 19.7615C22.3748 20.5827 21.7268 21.2395 20.9165 21.2395C20.1062 21.2395 19.4582 20.5827 19.4582 19.7615C19.4582 18.9402 20.1062 18.2834 20.9165 18.2834Z" fill="#E40A13"/>
</svg>
