<svg width="48" height="48" viewBox="0 0 48 48" fill="none" xmlns="http://www.w3.org/2000/svg">
<circle opacity="0.1" cx="24" cy="24" r="24" fill="#E40A13"/>
<path d="M18.7756 11.8335C18.6706 11.8566 18.5706 11.9052 18.4886 11.977L11.785 17.1226C11.5339 17.2225 11.3725 17.4685 11.375 17.7376V36.1059C11.375 36.4672 11.6697 36.7619 12.031 36.7619H31.7114C31.719 36.7619 31.7242 36.7619 31.7319 36.7619C31.7729 36.7593 31.8139 36.7516 31.8549 36.7414C31.8754 36.7363 31.8959 36.7286 31.9164 36.7209C32.0804 36.6722 32.2213 36.562 32.3059 36.4134L37.4719 29.9558C37.5642 29.8405 37.6155 29.6944 37.6155 29.5458V12.6125C37.6539 12.3921 37.5744 12.1692 37.4104 12.018C37.4053 12.0052 37.3976 11.9898 37.3899 11.977C37.3823 11.977 37.3771 11.977 37.3694 11.977C37.3566 11.9616 37.3438 11.9488 37.3284 11.936C37.3208 11.936 37.3156 11.936 37.3079 11.936C37.2746 11.9129 37.2413 11.8924 37.2054 11.8745C37.1465 11.8514 37.085 11.8386 37.0209 11.8335C37.0004 11.8335 36.9799 11.8335 36.9594 11.8335H18.8987C18.8782 11.8335 18.8576 11.8335 18.8371 11.8335C18.8166 11.8335 18.7961 11.8335 18.7756 11.8335ZM19.1037 13.1455H26.0533L21.6252 17.0816H13.9581L19.1037 13.1455ZM28.0213 13.1455H35.3604L31.4244 17.0816H23.5932L28.0213 13.1455ZM36.3034 14.0885V29.3203L32.3674 34.2404V18.0246L36.3034 14.0885ZM12.6871 18.3936H21.6252C21.7508 18.432 21.8891 18.432 22.0147 18.3936H31.0553V35.4499H12.6871V18.3936ZM18.4681 21.0176C18.1068 21.051 17.8403 21.3738 17.8736 21.7352C17.9069 22.0965 18.2298 22.363 18.5911 22.3297H25.1513C25.387 22.3322 25.6074 22.2092 25.7278 22.0042C25.8457 21.7992 25.8457 21.5481 25.7278 21.3431C25.6074 21.1381 25.387 21.0151 25.1513 21.0176H18.5911C18.5706 21.0176 18.5501 21.0176 18.5296 21.0176C18.5091 21.0176 18.4886 21.0176 18.4681 21.0176Z" fill="#E40A13"/>
</svg>
