<svg width="48" height="48" viewBox="0 0 48 48" fill="none" xmlns="http://www.w3.org/2000/svg">
<circle opacity="0.1" cx="24" cy="24" r="24" fill="#E40A13"/>
<mask id="path-2-outside-1_2_7233" maskUnits="userSpaceOnUse" x="10.8335" y="7.9165" width="26" height="32" fill="black">
<rect fill="white" x="10.8335" y="7.9165" width="26" height="32"/>
<path d="M23.5704 8.9165C23.1378 8.9165 22.7633 9.15737 22.5925 9.50015C22.5091 9.46799 22.4184 9.44913 22.3227 9.44913H21.6975C21.306 9.44913 20.9859 9.74723 20.9859 10.1094V10.317C18.7473 11.3746 17.2101 13.5191 17.1816 16.0031C16.7665 16.0615 16.4402 16.3849 16.4402 16.7857V17.5576C16.4402 17.9985 16.8322 18.3581 17.3043 18.3581H18.0354C18.0025 18.6002 17.979 18.8473 17.979 19.1014C17.979 20.6087 18.5226 22.6479 19.5655 24.3443C20.6084 26.0407 22.1844 27.4145 24.2408 27.4145C26.2984 27.4145 27.8755 26.0408 28.9193 24.3444C29.8944 22.7597 30.4332 20.876 30.5 19.4061C30.5029 19.3875 30.5035 19.3687 30.5019 19.35C30.5051 19.2659 30.5074 19.1825 30.5074 19.1014C30.5074 18.8468 30.4828 18.5998 30.4493 18.3581H30.957C31.4302 18.3581 31.8232 17.9985 31.8232 17.5576V16.7857C31.8232 16.3864 31.4982 16.064 31.0841 16.0039C31.056 13.5194 29.5166 11.3748 27.2776 10.317V10.1094C27.2776 9.74875 26.9557 9.44913 26.5615 9.44913H25.9409C25.8446 9.44913 25.7532 9.46802 25.6693 9.50042C25.4989 9.15747 25.1248 8.9165 24.6932 8.9165H23.5704ZM23.5704 9.41898H24.6932C24.9901 9.41898 25.2271 9.63833 25.2271 9.91026V10.1094V11.8811V11.8903L25.2269 11.8927V12.8423C25.2254 13.1213 24.9891 13.3371 24.6932 13.3371H23.5704C23.2706 13.3371 23.0343 13.1199 23.0343 12.8396V11.8927V11.8811V10.1094V10.0979V9.99771V9.91026C23.0343 9.63833 23.2706 9.41898 23.5704 9.41898ZM21.6975 9.95146H22.3227C22.4048 9.95146 22.4734 10.0078 22.4893 10.0785C22.4914 10.0883 22.4928 10.0992 22.4928 10.1094V11.8811C22.4928 11.8896 22.4914 11.8977 22.4902 11.9058C22.4896 11.9093 22.4896 11.9129 22.4888 11.9163C22.4877 11.9213 22.4858 11.9259 22.4843 11.9307C22.4824 11.9364 22.4809 11.9423 22.4784 11.9477L22.4752 11.9534C22.4472 12.0078 22.3893 12.0443 22.3227 12.0443H21.6975C21.6074 12.0443 21.5274 11.9725 21.5274 11.8811V10.4722V10.1094C21.5274 10.0266 21.6074 9.95146 21.6975 9.95146ZM25.9409 9.95146H26.5615C26.6625 9.95146 26.7361 10.025 26.7361 10.1094V10.468V10.4722V11.8811C26.7361 11.916 26.7257 11.9477 26.7075 11.9736C26.6953 11.9909 26.6795 12.0057 26.661 12.0171C26.6518 12.0229 26.6418 12.0279 26.6313 12.0319C26.6208 12.0359 26.6096 12.0391 26.5979 12.0412C26.5863 12.0433 26.5741 12.0443 26.5615 12.0443H25.9409C25.8625 12.0443 25.7944 11.9927 25.7744 11.9226L25.7725 11.9166C25.7717 11.9132 25.7716 11.9095 25.7711 11.906C25.7698 11.8978 25.7686 11.8897 25.7686 11.8811V10.1111C25.7705 10.0928 25.774 10.0726 25.774 10.0726C25.7925 10.0054 25.8583 9.95146 25.9409 9.95146ZM20.9859 10.9027V11.8811C20.9859 12.2454 21.306 12.5468 21.6975 12.5468H22.3227C22.3829 12.5468 22.4369 12.5282 22.4928 12.5148V12.8396V12.8576C22.4928 13.404 22.9794 13.8512 23.5702 13.8512H24.6931C25.2825 13.8512 25.7684 13.4039 25.7684 12.8576V12.8423L25.7686 12.8396V12.5146C25.8251 12.5282 25.88 12.5468 25.9409 12.5468H26.5613C26.5859 12.5468 26.6106 12.5455 26.6345 12.5432C26.6585 12.5409 26.6822 12.5375 26.7054 12.533C26.7286 12.5285 26.7516 12.523 26.7739 12.5165C26.7963 12.5099 26.8183 12.5023 26.8396 12.4938C26.861 12.4853 26.882 12.4758 26.9023 12.4655C26.9225 12.4551 26.9422 12.4438 26.9612 12.4318C26.9803 12.4197 26.9987 12.4068 27.0164 12.3932C27.0341 12.3795 27.051 12.3652 27.0672 12.35C27.197 12.229 27.2776 12.0626 27.2776 11.8811V10.9027C29.1956 11.9112 30.5015 13.7927 30.5381 15.9798H17.7276C17.7641 13.7926 19.0683 11.9111 20.9859 10.9027ZM17.3043 16.4822H17.452H30.8114H30.957C31.135 16.4822 31.2817 16.6192 31.2817 16.7857V17.5576C31.2817 17.724 31.1382 17.8557 30.957 17.8557H17.3043C17.1264 17.8557 16.9817 17.7239 16.9817 17.5576V16.7857C16.9817 16.6192 17.1295 16.4822 17.3043 16.4822ZM18.58 18.3646H26.9855L26.5094 19.1306H19.8656C19.8298 19.1303 19.7943 19.1365 19.7612 19.149C19.728 19.1615 19.6978 19.1799 19.6724 19.2033C19.647 19.2267 19.6268 19.2545 19.613 19.2851C19.5992 19.3158 19.5921 19.3486 19.5921 19.3818C19.5921 19.4151 19.5992 19.4479 19.613 19.4786C19.6268 19.5092 19.647 19.537 19.6724 19.5604C19.6978 19.5838 19.728 19.6022 19.7612 19.6147C19.7943 19.6272 19.8298 19.6334 19.8656 19.6331H26.6659C26.7134 19.6331 26.7601 19.6215 26.8013 19.5994C26.8424 19.5774 26.8766 19.5456 26.9004 19.5074L27.4189 18.6729L27.9341 19.4964C27.9579 19.5344 27.9921 19.566 28.0332 19.588C28.0743 19.6099 28.1209 19.6215 28.1683 19.6215H29.9432C29.8339 20.9619 29.322 22.6766 28.4491 24.0952C27.4587 25.7047 26.038 26.912 24.2408 26.912C22.445 26.912 21.0254 25.7049 20.0359 24.0953C19.0463 22.4857 18.5205 20.494 18.5205 19.1014C18.5205 18.8502 18.5448 18.6044 18.58 18.3646ZM27.8521 18.3646H29.9043C29.9402 18.6049 29.9659 18.8508 29.9659 19.1014C29.9659 19.1071 29.9654 19.1133 29.9654 19.119H28.3242L27.8521 18.3646ZM19.3273 26.8826C19.2816 26.8833 19.2369 26.8947 19.1972 26.9157C17.1623 27.9958 15.6982 28.6758 14.6313 29.2308C13.5645 29.7858 12.8774 30.2208 12.448 30.8288C12.0185 31.4368 11.8822 32.1772 11.8453 33.2776C11.8084 34.378 11.8696 35.8596 11.8696 38.008C11.8696 38.0648 11.8903 38.1198 11.9284 38.1642C11.9664 38.2087 12.0195 38.2398 12.0791 38.2527C15.4966 38.9891 18.9149 39.404 22.3331 39.512C22.3715 39.5133 22.4098 39.5146 22.4481 39.5157C22.5807 39.5196 22.7134 39.5235 22.846 39.5265C23.015 39.5304 23.1839 39.5334 23.3529 39.5358C23.44 39.537 23.5271 39.5378 23.6142 39.5386C23.8004 39.5404 23.9866 39.5415 24.1727 39.5415C24.2064 39.5415 24.2401 39.5414 24.2737 39.5414C24.4973 39.5409 24.7209 39.539 24.9445 39.5359C24.969 39.5356 24.9936 39.5352 25.0181 39.5348C26.5144 39.5123 28.0105 39.4309 29.5064 39.2914C29.531 39.2891 29.5557 39.2869 29.5804 39.2846C29.8034 39.2635 30.0265 39.2413 30.2496 39.2176C30.3084 39.2114 30.3671 39.2049 30.4259 39.1985C30.5693 39.1829 30.7126 39.1667 30.856 39.15C31.0892 39.1229 31.3223 39.0943 31.5555 39.0645C33.1639 38.8591 34.7722 38.5889 36.3802 38.2531C36.4401 38.2405 36.4937 38.2094 36.5321 38.1649C36.5705 38.1204 36.5914 38.0651 36.5914 38.008C36.5914 35.8711 36.6509 34.3944 36.6119 33.2951C36.5728 32.1957 36.4337 31.4531 36.003 30.842C35.6113 30.2862 35.0035 29.8711 34.0954 29.3806L34.0902 29.3775C34.0805 29.3722 34.0692 29.3665 34.0594 29.3612C33.9802 29.3187 33.9028 29.2766 33.819 29.2327C32.7532 28.6745 31.2924 27.9929 29.2641 26.9157C29.2185 26.8915 29.1664 26.8801 29.114 26.8829C29.0615 26.8857 29.0111 26.9026 28.9689 26.9315C27.2443 28.1114 25.7834 28.7902 24.322 28.8448C22.8605 28.8995 21.3535 28.3408 19.5027 26.9391C19.4533 26.9016 19.3912 26.8816 19.3273 26.8826ZM29.1443 27.4283C30.0511 27.9076 30.8368 28.3045 31.5317 28.6521L27.6452 36.0803C27.6252 36.1186 27.6159 36.161 27.6184 36.2035C27.6208 36.246 27.6349 36.2872 27.6592 36.3233C27.6836 36.3594 27.7174 36.3892 27.7575 36.4098C27.7977 36.4304 27.8428 36.4413 27.8887 36.4413H28.7757L28.4912 37.009H26.7798V35.418C26.7798 35.3514 26.7513 35.2876 26.7005 35.2405C26.6497 35.1934 26.5809 35.1669 26.5091 35.1669H21.9498C21.878 35.1669 21.8092 35.1933 21.7584 35.2404C21.7076 35.2875 21.679 35.3514 21.679 35.418V37.009H20.1291L19.8446 36.4413H20.7272C20.773 36.4413 20.8182 36.4304 20.8583 36.4098C20.8984 36.3892 20.9323 36.3595 20.9566 36.3234C20.981 36.2873 20.995 36.2461 20.9975 36.2036C21 36.1611 20.9908 36.1187 20.9708 36.0804L17.0548 28.5874C17.716 28.257 18.4607 27.88 19.3068 27.4333C21.1525 28.8001 22.7599 29.4061 24.3437 29.3469C25.9238 29.2878 27.4433 28.574 29.1443 27.4283ZM16.6138 28.8955L20.2949 35.9388H19.4611C19.4329 35.9346 19.4041 35.9346 19.3759 35.9388H18.2829L15.0195 29.7009C15.4647 29.4673 15.9969 29.202 16.6138 28.8955ZM32.0063 28.8955C32.6226 29.2019 33.1536 29.4672 33.5986 29.7009L30.3374 35.9388H29.244C29.2318 35.9369 29.2195 35.9358 29.2072 35.9355C29.1911 35.9353 29.175 35.9364 29.1591 35.9388H28.3211L32.0063 28.8955ZM14.5089 29.8754L17.8699 36.2997C17.892 36.3421 17.9266 36.3779 17.9697 36.4029C18.0128 36.4279 18.0625 36.4412 18.1133 36.4413H19.2475L19.532 37.009H16.9382C16.8664 37.009 16.7975 37.0355 16.7467 37.0826C16.696 37.1297 16.6675 37.1936 16.6675 37.2603V38.5394C15.2481 38.3496 13.8287 38.1056 12.4092 37.8052C12.4051 35.774 12.352 34.3227 12.3865 33.2931C12.4224 32.2244 12.5531 31.5968 12.901 31.1043C13.2033 30.6761 13.6975 30.3191 14.5089 29.8754ZM34.0692 29.9514C34.8012 30.3643 35.2626 30.7096 35.5498 31.1171C35.8998 31.6138 36.0328 32.2442 36.0707 33.3116C36.1072 34.3393 36.0557 35.7849 36.0517 37.8039C34.6305 38.0958 33.2096 38.3358 31.789 38.5248V37.2603C31.789 37.1936 31.7605 37.1297 31.7097 37.0826C31.659 37.0355 31.5901 37.009 31.5183 37.009H29.0883L29.3729 36.4413H30.5071C30.5579 36.4412 30.6077 36.4279 30.6507 36.4029C30.6938 36.3779 30.7284 36.3421 30.7505 36.2997L34.0692 29.9514ZM22.2205 35.6693H26.2385V37.009H22.2205V35.6693ZM17.209 37.5114H19.9085C19.9416 37.5172 19.9755 37.5172 20.0085 37.5114H21.946L21.9498 37.5116H26.5091L26.5121 37.5114H28.6119C28.6451 37.5172 28.6791 37.5172 28.7123 37.5114H31.2476V38.5932C30.0868 38.7378 28.926 38.8471 27.7653 38.921C27.7338 38.923 27.7022 38.9247 27.6706 38.9266C27.4205 38.9421 27.1705 38.956 26.9204 38.9682C26.8769 38.9703 26.8335 38.9723 26.7901 38.9744C26.5444 38.9858 26.2987 38.9957 26.053 39.004C26.015 39.0053 25.9769 39.0066 25.9388 39.0078C23.0293 39.0993 20.1197 38.9668 17.209 38.6046V37.5114Z"/>
</mask>
<path d="M23.5704 8.9165C23.1378 8.9165 22.7633 9.15737 22.5925 9.50015C22.5091 9.46799 22.4184 9.44913 22.3227 9.44913H21.6975C21.306 9.44913 20.9859 9.74723 20.9859 10.1094V10.317C18.7473 11.3746 17.2101 13.5191 17.1816 16.0031C16.7665 16.0615 16.4402 16.3849 16.4402 16.7857V17.5576C16.4402 17.9985 16.8322 18.3581 17.3043 18.3581H18.0354C18.0025 18.6002 17.979 18.8473 17.979 19.1014C17.979 20.6087 18.5226 22.6479 19.5655 24.3443C20.6084 26.0407 22.1844 27.4145 24.2408 27.4145C26.2984 27.4145 27.8755 26.0408 28.9193 24.3444C29.8944 22.7597 30.4332 20.876 30.5 19.4061C30.5029 19.3875 30.5035 19.3687 30.5019 19.35C30.5051 19.2659 30.5074 19.1825 30.5074 19.1014C30.5074 18.8468 30.4828 18.5998 30.4493 18.3581H30.957C31.4302 18.3581 31.8232 17.9985 31.8232 17.5576V16.7857C31.8232 16.3864 31.4982 16.064 31.0841 16.0039C31.056 13.5194 29.5166 11.3748 27.2776 10.317V10.1094C27.2776 9.74875 26.9557 9.44913 26.5615 9.44913H25.9409C25.8446 9.44913 25.7532 9.46802 25.6693 9.50042C25.4989 9.15747 25.1248 8.9165 24.6932 8.9165H23.5704ZM23.5704 9.41898H24.6932C24.9901 9.41898 25.2271 9.63833 25.2271 9.91026V10.1094V11.8811V11.8903L25.2269 11.8927V12.8423C25.2254 13.1213 24.9891 13.3371 24.6932 13.3371H23.5704C23.2706 13.3371 23.0343 13.1199 23.0343 12.8396V11.8927V11.8811V10.1094V10.0979V9.99771V9.91026C23.0343 9.63833 23.2706 9.41898 23.5704 9.41898ZM21.6975 9.95146H22.3227C22.4048 9.95146 22.4734 10.0078 22.4893 10.0785C22.4914 10.0883 22.4928 10.0992 22.4928 10.1094V11.8811C22.4928 11.8896 22.4914 11.8977 22.4902 11.9058C22.4896 11.9093 22.4896 11.9129 22.4888 11.9163C22.4877 11.9213 22.4858 11.9259 22.4843 11.9307C22.4824 11.9364 22.4809 11.9423 22.4784 11.9477L22.4752 11.9534C22.4472 12.0078 22.3893 12.0443 22.3227 12.0443H21.6975C21.6074 12.0443 21.5274 11.9725 21.5274 11.8811V10.4722V10.1094C21.5274 10.0266 21.6074 9.95146 21.6975 9.95146ZM25.9409 9.95146H26.5615C26.6625 9.95146 26.7361 10.025 26.7361 10.1094V10.468V10.4722V11.8811C26.7361 11.916 26.7257 11.9477 26.7075 11.9736C26.6953 11.9909 26.6795 12.0057 26.661 12.0171C26.6518 12.0229 26.6418 12.0279 26.6313 12.0319C26.6208 12.0359 26.6096 12.0391 26.5979 12.0412C26.5863 12.0433 26.5741 12.0443 26.5615 12.0443H25.9409C25.8625 12.0443 25.7944 11.9927 25.7744 11.9226L25.7725 11.9166C25.7717 11.9132 25.7716 11.9095 25.7711 11.906C25.7698 11.8978 25.7686 11.8897 25.7686 11.8811V10.1111C25.7705 10.0928 25.774 10.0726 25.774 10.0726C25.7925 10.0054 25.8583 9.95146 25.9409 9.95146ZM20.9859 10.9027V11.8811C20.9859 12.2454 21.306 12.5468 21.6975 12.5468H22.3227C22.3829 12.5468 22.4369 12.5282 22.4928 12.5148V12.8396V12.8576C22.4928 13.404 22.9794 13.8512 23.5702 13.8512H24.6931C25.2825 13.8512 25.7684 13.4039 25.7684 12.8576V12.8423L25.7686 12.8396V12.5146C25.8251 12.5282 25.88 12.5468 25.9409 12.5468H26.5613C26.5859 12.5468 26.6106 12.5455 26.6345 12.5432C26.6585 12.5409 26.6822 12.5375 26.7054 12.533C26.7286 12.5285 26.7516 12.523 26.7739 12.5165C26.7963 12.5099 26.8183 12.5023 26.8396 12.4938C26.861 12.4853 26.882 12.4758 26.9023 12.4655C26.9225 12.4551 26.9422 12.4438 26.9612 12.4318C26.9803 12.4197 26.9987 12.4068 27.0164 12.3932C27.0341 12.3795 27.051 12.3652 27.0672 12.35C27.197 12.229 27.2776 12.0626 27.2776 11.8811V10.9027C29.1956 11.9112 30.5015 13.7927 30.5381 15.9798H17.7276C17.7641 13.7926 19.0683 11.9111 20.9859 10.9027ZM17.3043 16.4822H17.452H30.8114H30.957C31.135 16.4822 31.2817 16.6192 31.2817 16.7857V17.5576C31.2817 17.724 31.1382 17.8557 30.957 17.8557H17.3043C17.1264 17.8557 16.9817 17.7239 16.9817 17.5576V16.7857C16.9817 16.6192 17.1295 16.4822 17.3043 16.4822ZM18.58 18.3646H26.9855L26.5094 19.1306H19.8656C19.8298 19.1303 19.7943 19.1365 19.7612 19.149C19.728 19.1615 19.6978 19.1799 19.6724 19.2033C19.647 19.2267 19.6268 19.2545 19.613 19.2851C19.5992 19.3158 19.5921 19.3486 19.5921 19.3818C19.5921 19.4151 19.5992 19.4479 19.613 19.4786C19.6268 19.5092 19.647 19.537 19.6724 19.5604C19.6978 19.5838 19.728 19.6022 19.7612 19.6147C19.7943 19.6272 19.8298 19.6334 19.8656 19.6331H26.6659C26.7134 19.6331 26.7601 19.6215 26.8013 19.5994C26.8424 19.5774 26.8766 19.5456 26.9004 19.5074L27.4189 18.6729L27.9341 19.4964C27.9579 19.5344 27.9921 19.566 28.0332 19.588C28.0743 19.6099 28.1209 19.6215 28.1683 19.6215H29.9432C29.8339 20.9619 29.322 22.6766 28.4491 24.0952C27.4587 25.7047 26.038 26.912 24.2408 26.912C22.445 26.912 21.0254 25.7049 20.0359 24.0953C19.0463 22.4857 18.5205 20.494 18.5205 19.1014C18.5205 18.8502 18.5448 18.6044 18.58 18.3646ZM27.8521 18.3646H29.9043C29.9402 18.6049 29.9659 18.8508 29.9659 19.1014C29.9659 19.1071 29.9654 19.1133 29.9654 19.119H28.3242L27.8521 18.3646ZM19.3273 26.8826C19.2816 26.8833 19.2369 26.8947 19.1972 26.9157C17.1623 27.9958 15.6982 28.6758 14.6313 29.2308C13.5645 29.7858 12.8774 30.2208 12.448 30.8288C12.0185 31.4368 11.8822 32.1772 11.8453 33.2776C11.8084 34.378 11.8696 35.8596 11.8696 38.008C11.8696 38.0648 11.8903 38.1198 11.9284 38.1642C11.9664 38.2087 12.0195 38.2398 12.0791 38.2527C15.4966 38.9891 18.9149 39.404 22.3331 39.512C22.3715 39.5133 22.4098 39.5146 22.4481 39.5157C22.5807 39.5196 22.7134 39.5235 22.846 39.5265C23.015 39.5304 23.1839 39.5334 23.3529 39.5358C23.44 39.537 23.5271 39.5378 23.6142 39.5386C23.8004 39.5404 23.9866 39.5415 24.1727 39.5415C24.2064 39.5415 24.2401 39.5414 24.2737 39.5414C24.4973 39.5409 24.7209 39.539 24.9445 39.5359C24.969 39.5356 24.9936 39.5352 25.0181 39.5348C26.5144 39.5123 28.0105 39.4309 29.5064 39.2914C29.531 39.2891 29.5557 39.2869 29.5804 39.2846C29.8034 39.2635 30.0265 39.2413 30.2496 39.2176C30.3084 39.2114 30.3671 39.2049 30.4259 39.1985C30.5693 39.1829 30.7126 39.1667 30.856 39.15C31.0892 39.1229 31.3223 39.0943 31.5555 39.0645C33.1639 38.8591 34.7722 38.5889 36.3802 38.2531C36.4401 38.2405 36.4937 38.2094 36.5321 38.1649C36.5705 38.1204 36.5914 38.0651 36.5914 38.008C36.5914 35.8711 36.6509 34.3944 36.6119 33.2951C36.5728 32.1957 36.4337 31.4531 36.003 30.842C35.6113 30.2862 35.0035 29.8711 34.0954 29.3806L34.0902 29.3775C34.0805 29.3722 34.0692 29.3665 34.0594 29.3612C33.9802 29.3187 33.9028 29.2766 33.819 29.2327C32.7532 28.6745 31.2924 27.9929 29.2641 26.9157C29.2185 26.8915 29.1664 26.8801 29.114 26.8829C29.0615 26.8857 29.0111 26.9026 28.9689 26.9315C27.2443 28.1114 25.7834 28.7902 24.322 28.8448C22.8605 28.8995 21.3535 28.3408 19.5027 26.9391C19.4533 26.9016 19.3912 26.8816 19.3273 26.8826ZM29.1443 27.4283C30.0511 27.9076 30.8368 28.3045 31.5317 28.6521L27.6452 36.0803C27.6252 36.1186 27.6159 36.161 27.6184 36.2035C27.6208 36.246 27.6349 36.2872 27.6592 36.3233C27.6836 36.3594 27.7174 36.3892 27.7575 36.4098C27.7977 36.4304 27.8428 36.4413 27.8887 36.4413H28.7757L28.4912 37.009H26.7798V35.418C26.7798 35.3514 26.7513 35.2876 26.7005 35.2405C26.6497 35.1934 26.5809 35.1669 26.5091 35.1669H21.9498C21.878 35.1669 21.8092 35.1933 21.7584 35.2404C21.7076 35.2875 21.679 35.3514 21.679 35.418V37.009H20.1291L19.8446 36.4413H20.7272C20.773 36.4413 20.8182 36.4304 20.8583 36.4098C20.8984 36.3892 20.9323 36.3595 20.9566 36.3234C20.981 36.2873 20.995 36.2461 20.9975 36.2036C21 36.1611 20.9908 36.1187 20.9708 36.0804L17.0548 28.5874C17.716 28.257 18.4607 27.88 19.3068 27.4333C21.1525 28.8001 22.7599 29.4061 24.3437 29.3469C25.9238 29.2878 27.4433 28.574 29.1443 27.4283ZM16.6138 28.8955L20.2949 35.9388H19.4611C19.4329 35.9346 19.4041 35.9346 19.3759 35.9388H18.2829L15.0195 29.7009C15.4647 29.4673 15.9969 29.202 16.6138 28.8955ZM32.0063 28.8955C32.6226 29.2019 33.1536 29.4672 33.5986 29.7009L30.3374 35.9388H29.244C29.2318 35.9369 29.2195 35.9358 29.2072 35.9355C29.1911 35.9353 29.175 35.9364 29.1591 35.9388H28.3211L32.0063 28.8955ZM14.5089 29.8754L17.8699 36.2997C17.892 36.3421 17.9266 36.3779 17.9697 36.4029C18.0128 36.4279 18.0625 36.4412 18.1133 36.4413H19.2475L19.532 37.009H16.9382C16.8664 37.009 16.7975 37.0355 16.7467 37.0826C16.696 37.1297 16.6675 37.1936 16.6675 37.2603V38.5394C15.2481 38.3496 13.8287 38.1056 12.4092 37.8052C12.4051 35.774 12.352 34.3227 12.3865 33.2931C12.4224 32.2244 12.5531 31.5968 12.901 31.1043C13.2033 30.6761 13.6975 30.3191 14.5089 29.8754ZM34.0692 29.9514C34.8012 30.3643 35.2626 30.7096 35.5498 31.1171C35.8998 31.6138 36.0328 32.2442 36.0707 33.3116C36.1072 34.3393 36.0557 35.7849 36.0517 37.8039C34.6305 38.0958 33.2096 38.3358 31.789 38.5248V37.2603C31.789 37.1936 31.7605 37.1297 31.7097 37.0826C31.659 37.0355 31.5901 37.009 31.5183 37.009H29.0883L29.3729 36.4413H30.5071C30.5579 36.4412 30.6077 36.4279 30.6507 36.4029C30.6938 36.3779 30.7284 36.3421 30.7505 36.2997L34.0692 29.9514ZM22.2205 35.6693H26.2385V37.009H22.2205V35.6693ZM17.209 37.5114H19.9085C19.9416 37.5172 19.9755 37.5172 20.0085 37.5114H21.946L21.9498 37.5116H26.5091L26.5121 37.5114H28.6119C28.6451 37.5172 28.6791 37.5172 28.7123 37.5114H31.2476V38.5932C30.0868 38.7378 28.926 38.8471 27.7653 38.921C27.7338 38.923 27.7022 38.9247 27.6706 38.9266C27.4205 38.9421 27.1705 38.956 26.9204 38.9682C26.8769 38.9703 26.8335 38.9723 26.7901 38.9744C26.5444 38.9858 26.2987 38.9957 26.053 39.004C26.015 39.0053 25.9769 39.0066 25.9388 39.0078C23.0293 39.0993 20.1197 38.9668 17.209 38.6046V37.5114Z" fill="#E40A13"/>
<path d="M23.5704 8.9165C23.1378 8.9165 22.7633 9.15737 22.5925 9.50015C22.5091 9.46799 22.4184 9.44913 22.3227 9.44913H21.6975C21.306 9.44913 20.9859 9.74723 20.9859 10.1094V10.317C18.7473 11.3746 17.2101 13.5191 17.1816 16.0031C16.7665 16.0615 16.4402 16.3849 16.4402 16.7857V17.5576C16.4402 17.9985 16.8322 18.3581 17.3043 18.3581H18.0354C18.0025 18.6002 17.979 18.8473 17.979 19.1014C17.979 20.6087 18.5226 22.6479 19.5655 24.3443C20.6084 26.0407 22.1844 27.4145 24.2408 27.4145C26.2984 27.4145 27.8755 26.0408 28.9193 24.3444C29.8944 22.7597 30.4332 20.876 30.5 19.4061C30.5029 19.3875 30.5035 19.3687 30.5019 19.35C30.5051 19.2659 30.5074 19.1825 30.5074 19.1014C30.5074 18.8468 30.4828 18.5998 30.4493 18.3581H30.957C31.4302 18.3581 31.8232 17.9985 31.8232 17.5576V16.7857C31.8232 16.3864 31.4982 16.064 31.0841 16.0039C31.056 13.5194 29.5166 11.3748 27.2776 10.317V10.1094C27.2776 9.74875 26.9557 9.44913 26.5615 9.44913H25.9409C25.8446 9.44913 25.7532 9.46802 25.6693 9.50042C25.4989 9.15747 25.1248 8.9165 24.6932 8.9165H23.5704ZM23.5704 9.41898H24.6932C24.9901 9.41898 25.2271 9.63833 25.2271 9.91026V10.1094V11.8811V11.8903L25.2269 11.8927V12.8423C25.2254 13.1213 24.9891 13.3371 24.6932 13.3371H23.5704C23.2706 13.3371 23.0343 13.1199 23.0343 12.8396V11.8927V11.8811V10.1094V10.0979V9.99771V9.91026C23.0343 9.63833 23.2706 9.41898 23.5704 9.41898ZM21.6975 9.95146H22.3227C22.4048 9.95146 22.4734 10.0078 22.4893 10.0785C22.4914 10.0883 22.4928 10.0992 22.4928 10.1094V11.8811C22.4928 11.8896 22.4914 11.8977 22.4902 11.9058C22.4896 11.9093 22.4896 11.9129 22.4888 11.9163C22.4877 11.9213 22.4858 11.9259 22.4843 11.9307C22.4824 11.9364 22.4809 11.9423 22.4784 11.9477L22.4752 11.9534C22.4472 12.0078 22.3893 12.0443 22.3227 12.0443H21.6975C21.6074 12.0443 21.5274 11.9725 21.5274 11.8811V10.4722V10.1094C21.5274 10.0266 21.6074 9.95146 21.6975 9.95146ZM25.9409 9.95146H26.5615C26.6625 9.95146 26.7361 10.025 26.7361 10.1094V10.468V10.4722V11.8811C26.7361 11.916 26.7257 11.9477 26.7075 11.9736C26.6953 11.9909 26.6795 12.0057 26.661 12.0171C26.6518 12.0229 26.6418 12.0279 26.6313 12.0319C26.6208 12.0359 26.6096 12.0391 26.5979 12.0412C26.5863 12.0433 26.5741 12.0443 26.5615 12.0443H25.9409C25.8625 12.0443 25.7944 11.9927 25.7744 11.9226L25.7725 11.9166C25.7717 11.9132 25.7716 11.9095 25.7711 11.906C25.7698 11.8978 25.7686 11.8897 25.7686 11.8811V10.1111C25.7705 10.0928 25.774 10.0726 25.774 10.0726C25.7925 10.0054 25.8583 9.95146 25.9409 9.95146ZM20.9859 10.9027V11.8811C20.9859 12.2454 21.306 12.5468 21.6975 12.5468H22.3227C22.3829 12.5468 22.4369 12.5282 22.4928 12.5148V12.8396V12.8576C22.4928 13.404 22.9794 13.8512 23.5702 13.8512H24.6931C25.2825 13.8512 25.7684 13.4039 25.7684 12.8576V12.8423L25.7686 12.8396V12.5146C25.8251 12.5282 25.88 12.5468 25.9409 12.5468H26.5613C26.5859 12.5468 26.6106 12.5455 26.6345 12.5432C26.6585 12.5409 26.6822 12.5375 26.7054 12.533C26.7286 12.5285 26.7516 12.523 26.7739 12.5165C26.7963 12.5099 26.8183 12.5023 26.8396 12.4938C26.861 12.4853 26.882 12.4758 26.9023 12.4655C26.9225 12.4551 26.9422 12.4438 26.9612 12.4318C26.9803 12.4197 26.9987 12.4068 27.0164 12.3932C27.0341 12.3795 27.051 12.3652 27.0672 12.35C27.197 12.229 27.2776 12.0626 27.2776 11.8811V10.9027C29.1956 11.9112 30.5015 13.7927 30.5381 15.9798H17.7276C17.7641 13.7926 19.0683 11.9111 20.9859 10.9027ZM17.3043 16.4822H17.452H30.8114H30.957C31.135 16.4822 31.2817 16.6192 31.2817 16.7857V17.5576C31.2817 17.724 31.1382 17.8557 30.957 17.8557H17.3043C17.1264 17.8557 16.9817 17.7239 16.9817 17.5576V16.7857C16.9817 16.6192 17.1295 16.4822 17.3043 16.4822ZM18.58 18.3646H26.9855L26.5094 19.1306H19.8656C19.8298 19.1303 19.7943 19.1365 19.7612 19.149C19.728 19.1615 19.6978 19.1799 19.6724 19.2033C19.647 19.2267 19.6268 19.2545 19.613 19.2851C19.5992 19.3158 19.5921 19.3486 19.5921 19.3818C19.5921 19.4151 19.5992 19.4479 19.613 19.4786C19.6268 19.5092 19.647 19.537 19.6724 19.5604C19.6978 19.5838 19.728 19.6022 19.7612 19.6147C19.7943 19.6272 19.8298 19.6334 19.8656 19.6331H26.6659C26.7134 19.6331 26.7601 19.6215 26.8013 19.5994C26.8424 19.5774 26.8766 19.5456 26.9004 19.5074L27.4189 18.6729L27.9341 19.4964C27.9579 19.5344 27.9921 19.566 28.0332 19.588C28.0743 19.6099 28.1209 19.6215 28.1683 19.6215H29.9432C29.8339 20.9619 29.322 22.6766 28.4491 24.0952C27.4587 25.7047 26.038 26.912 24.2408 26.912C22.445 26.912 21.0254 25.7049 20.0359 24.0953C19.0463 22.4857 18.5205 20.494 18.5205 19.1014C18.5205 18.8502 18.5448 18.6044 18.58 18.3646ZM27.8521 18.3646H29.9043C29.9402 18.6049 29.9659 18.8508 29.9659 19.1014C29.9659 19.1071 29.9654 19.1133 29.9654 19.119H28.3242L27.8521 18.3646ZM19.3273 26.8826C19.2816 26.8833 19.2369 26.8947 19.1972 26.9157C17.1623 27.9958 15.6982 28.6758 14.6313 29.2308C13.5645 29.7858 12.8774 30.2208 12.448 30.8288C12.0185 31.4368 11.8822 32.1772 11.8453 33.2776C11.8084 34.378 11.8696 35.8596 11.8696 38.008C11.8696 38.0648 11.8903 38.1198 11.9284 38.1642C11.9664 38.2087 12.0195 38.2398 12.0791 38.2527C15.4966 38.9891 18.9149 39.404 22.3331 39.512C22.3715 39.5133 22.4098 39.5146 22.4481 39.5157C22.5807 39.5196 22.7134 39.5235 22.846 39.5265C23.015 39.5304 23.1839 39.5334 23.3529 39.5358C23.44 39.537 23.5271 39.5378 23.6142 39.5386C23.8004 39.5404 23.9866 39.5415 24.1727 39.5415C24.2064 39.5415 24.2401 39.5414 24.2737 39.5414C24.4973 39.5409 24.7209 39.539 24.9445 39.5359C24.969 39.5356 24.9936 39.5352 25.0181 39.5348C26.5144 39.5123 28.0105 39.4309 29.5064 39.2914C29.531 39.2891 29.5557 39.2869 29.5804 39.2846C29.8034 39.2635 30.0265 39.2413 30.2496 39.2176C30.3084 39.2114 30.3671 39.2049 30.4259 39.1985C30.5693 39.1829 30.7126 39.1667 30.856 39.15C31.0892 39.1229 31.3223 39.0943 31.5555 39.0645C33.1639 38.8591 34.7722 38.5889 36.3802 38.2531C36.4401 38.2405 36.4937 38.2094 36.5321 38.1649C36.5705 38.1204 36.5914 38.0651 36.5914 38.008C36.5914 35.8711 36.6509 34.3944 36.6119 33.2951C36.5728 32.1957 36.4337 31.4531 36.003 30.842C35.6113 30.2862 35.0035 29.8711 34.0954 29.3806L34.0902 29.3775C34.0805 29.3722 34.0692 29.3665 34.0594 29.3612C33.9802 29.3187 33.9028 29.2766 33.819 29.2327C32.7532 28.6745 31.2924 27.9929 29.2641 26.9157C29.2185 26.8915 29.1664 26.8801 29.114 26.8829C29.0615 26.8857 29.0111 26.9026 28.9689 26.9315C27.2443 28.1114 25.7834 28.7902 24.322 28.8448C22.8605 28.8995 21.3535 28.3408 19.5027 26.9391C19.4533 26.9016 19.3912 26.8816 19.3273 26.8826ZM29.1443 27.4283C30.0511 27.9076 30.8368 28.3045 31.5317 28.6521L27.6452 36.0803C27.6252 36.1186 27.6159 36.161 27.6184 36.2035C27.6208 36.246 27.6349 36.2872 27.6592 36.3233C27.6836 36.3594 27.7174 36.3892 27.7575 36.4098C27.7977 36.4304 27.8428 36.4413 27.8887 36.4413H28.7757L28.4912 37.009H26.7798V35.418C26.7798 35.3514 26.7513 35.2876 26.7005 35.2405C26.6497 35.1934 26.5809 35.1669 26.5091 35.1669H21.9498C21.878 35.1669 21.8092 35.1933 21.7584 35.2404C21.7076 35.2875 21.679 35.3514 21.679 35.418V37.009H20.1291L19.8446 36.4413H20.7272C20.773 36.4413 20.8182 36.4304 20.8583 36.4098C20.8984 36.3892 20.9323 36.3595 20.9566 36.3234C20.981 36.2873 20.995 36.2461 20.9975 36.2036C21 36.1611 20.9908 36.1187 20.9708 36.0804L17.0548 28.5874C17.716 28.257 18.4607 27.88 19.3068 27.4333C21.1525 28.8001 22.7599 29.4061 24.3437 29.3469C25.9238 29.2878 27.4433 28.574 29.1443 27.4283ZM16.6138 28.8955L20.2949 35.9388H19.4611C19.4329 35.9346 19.4041 35.9346 19.3759 35.9388H18.2829L15.0195 29.7009C15.4647 29.4673 15.9969 29.202 16.6138 28.8955ZM32.0063 28.8955C32.6226 29.2019 33.1536 29.4672 33.5986 29.7009L30.3374 35.9388H29.244C29.2318 35.9369 29.2195 35.9358 29.2072 35.9355C29.1911 35.9353 29.175 35.9364 29.1591 35.9388H28.3211L32.0063 28.8955ZM14.5089 29.8754L17.8699 36.2997C17.892 36.3421 17.9266 36.3779 17.9697 36.4029C18.0128 36.4279 18.0625 36.4412 18.1133 36.4413H19.2475L19.532 37.009H16.9382C16.8664 37.009 16.7975 37.0355 16.7467 37.0826C16.696 37.1297 16.6675 37.1936 16.6675 37.2603V38.5394C15.2481 38.3496 13.8287 38.1056 12.4092 37.8052C12.4051 35.774 12.352 34.3227 12.3865 33.2931C12.4224 32.2244 12.5531 31.5968 12.901 31.1043C13.2033 30.6761 13.6975 30.3191 14.5089 29.8754ZM34.0692 29.9514C34.8012 30.3643 35.2626 30.7096 35.5498 31.1171C35.8998 31.6138 36.0328 32.2442 36.0707 33.3116C36.1072 34.3393 36.0557 35.7849 36.0517 37.8039C34.6305 38.0958 33.2096 38.3358 31.789 38.5248V37.2603C31.789 37.1936 31.7605 37.1297 31.7097 37.0826C31.659 37.0355 31.5901 37.009 31.5183 37.009H29.0883L29.3729 36.4413H30.5071C30.5579 36.4412 30.6077 36.4279 30.6507 36.4029C30.6938 36.3779 30.7284 36.3421 30.7505 36.2997L34.0692 29.9514ZM22.2205 35.6693H26.2385V37.009H22.2205V35.6693ZM17.209 37.5114H19.9085C19.9416 37.5172 19.9755 37.5172 20.0085 37.5114H21.946L21.9498 37.5116H26.5091L26.5121 37.5114H28.6119C28.6451 37.5172 28.6791 37.5172 28.7123 37.5114H31.2476V38.5932C30.0868 38.7378 28.926 38.8471 27.7653 38.921C27.7338 38.923 27.7022 38.9247 27.6706 38.9266C27.4205 38.9421 27.1705 38.956 26.9204 38.9682C26.8769 38.9703 26.8335 38.9723 26.7901 38.9744C26.5444 38.9858 26.2987 38.9957 26.053 39.004C26.015 39.0053 25.9769 39.0066 25.9388 39.0078C23.0293 39.0993 20.1197 38.9668 17.209 38.6046V37.5114Z" stroke="#E40A13" stroke-width="0.3" mask="url(#path-2-outside-1_2_7233)"/>
</svg>
