<svg width="48" height="48" viewBox="0 0 48 48" fill="none" xmlns="http://www.w3.org/2000/svg">
<circle opacity="0.1" cx="24" cy="24" r="24" fill="#E40A13"/>
<path d="M23.2342 8.9165C22.8851 8.9165 22.6003 9.20129 22.6003 9.55046V14.4636L19.4305 20.8032V19.6938C19.4305 19.3446 19.1457 19.0598 18.7965 19.0598H10.5551C10.3743 19.0598 10.2009 19.1415 10.0796 19.2778C9.95826 19.414 9.89883 19.5923 9.92111 19.773L11.823 34.988C11.8626 35.305 12.1375 35.5427 12.4569 35.5427H18.7965C19.1457 35.5427 19.4305 35.2604 19.4305 34.9088V34.2748H20.1635C20.426 35.0128 21.1392 35.5427 21.9663 35.5427H34.0115C35.4107 35.5427 36.5473 34.4061 36.5473 33.0069C36.5473 32.4844 36.3814 32.004 36.1115 31.6003C37.0996 31.2536 37.8153 30.3076 37.8153 29.2032C37.8153 28.5816 37.5924 28.0194 37.2209 27.5786C37.9564 27.1354 38.4492 26.3206 38.4492 25.3994C38.4492 24.7778 38.2263 24.2157 37.8549 23.7749C38.5904 23.3316 39.0832 22.5169 39.0832 21.5957C39.0832 20.1965 37.9465 19.0598 36.5473 19.0598H27.2757C27.662 17.8365 28.3059 15.6474 28.3059 14.6221C28.3059 12.2349 26.5576 8.9165 24.8389 8.9165H23.2342ZM23.8682 10.1844H24.8389C25.4209 10.1844 27.038 12.3909 27.038 14.6221C27.038 15.6152 26.1514 18.4779 25.8097 19.4957C25.7428 19.6888 25.7701 19.9043 25.8889 20.0702C26.0078 20.2361 26.201 20.3277 26.404 20.3277H36.5473C37.2457 20.3277 37.8153 20.8973 37.8153 21.5957C37.8153 22.294 37.2457 22.8636 36.5473 22.8636H35.9134C35.5617 22.8636 35.2794 23.1459 35.2794 23.4975C35.2794 23.8492 35.5617 24.1315 35.9134 24.1315C36.6117 24.1315 37.1813 24.7011 37.1813 25.3994C37.1813 26.0978 36.6117 26.6673 35.9134 26.6673H35.2794C34.9278 26.6673 34.6455 26.9496 34.6455 27.3013C34.6455 27.6529 34.9278 27.9352 35.2794 27.9352C35.9778 27.9352 36.5473 28.5048 36.5473 29.2032C36.5473 29.9015 35.9778 30.4711 35.2794 30.4711H34.0115C33.6599 30.4711 33.3775 30.7534 33.3775 31.105C33.3775 31.4567 33.6599 31.739 34.0115 31.739C34.7099 31.739 35.2794 32.3086 35.2794 33.0069C35.2794 33.7052 34.7099 34.2748 34.0115 34.2748H21.9663C21.6171 34.2748 21.3324 33.99 21.3324 33.6409C21.3324 33.2892 21.0476 33.0069 20.6984 33.0069H19.4305V22.2296H19.7475C19.9877 22.2296 20.213 22.0885 20.322 21.873L23.8088 14.8995C23.8533 14.8128 23.8682 14.7212 23.8682 14.6221V10.1844ZM11.2683 20.3277H18.1626V34.2748H13.0117L11.2683 20.3277ZM15.9437 31.105C15.4187 31.105 14.9928 31.531 14.9928 32.056C14.9928 32.581 15.4187 33.0069 15.9437 33.0069C16.4687 33.0069 16.8946 32.581 16.8946 32.056C16.8946 31.531 16.4687 31.105 15.9437 31.105Z" fill="#E40A13"/>
<path d="M24.6534 22.4107C24.5529 22.4102 24.4512 22.4205 24.35 22.4425C24.1545 22.4849 24.0304 22.6778 24.0728 22.8733C24.1152 23.0688 24.3082 23.1929 24.5037 23.1505C24.6969 23.1085 24.911 23.1584 25.0626 23.2806C25.1608 23.3598 25.2779 23.5076 25.2779 23.7612V24.6016H24.4111C24.211 24.6016 24.0488 24.7638 24.0488 24.9638C24.0488 25.1638 24.211 25.326 24.4111 25.326H25.278V30.1089C25.278 30.2983 25.4237 30.4556 25.6126 30.4701C28.3928 30.6827 30.4332 28.972 30.4332 26.127C30.4332 25.2844 29.7965 24.8307 29.1675 24.8182C28.5409 24.8051 27.8861 25.2297 27.8526 26.0646C27.8446 26.2645 28.0001 26.433 28.2 26.441C28.3998 26.4489 28.5684 26.2935 28.5764 26.0936C28.5931 25.6786 28.8981 25.5371 29.1529 25.5425C29.4093 25.5476 29.7086 25.7038 29.7086 26.127C29.7087 28.4272 28.1952 29.7894 26.0025 29.7628V25.326H26.4183C26.6183 25.326 26.7805 25.1638 26.7805 24.9638C26.7805 24.7638 26.6183 24.6016 26.4183 24.6016H26.0025V23.7612C26.0025 22.9477 25.3569 22.4138 24.6534 22.4107Z" fill="#E40A13"/>
</svg>
